<svg width="98" height="84" viewBox="0 0 98 84" fill="none" xmlns="http://www.w3.org/2000/svg">
    <path d="M48.937 15.7573C48.0239 16.0561 47.5163 17.047 47.9427 17.908C48.8122 19.6631 50.092 21.1953 51.6846 22.3697C53.7474 23.8907 56.2332 24.7367 58.7992 24.791C61.3651 24.8452 63.8847 24.105 66.0104 22.6724C67.6516 21.5664 68.9955 20.0898 69.9389 18.3729C70.4016 17.5309 69.9363 16.5191 69.0366 16.1819C68.1402 15.8459 67.1545 16.3115 66.649 17.1243C65.9898 18.1843 65.1106 19.0999 64.0632 19.8058C62.5332 20.8368 60.7197 21.3696 58.8729 21.3306C57.026 21.2916 55.2369 20.6826 53.7522 19.5878C52.7361 18.8386 51.8968 17.887 51.2835 16.8006C50.8126 15.9667 49.8471 15.4594 48.937 15.7573Z" fill="#D87023"/>
    <path d="M57.4694 11.2458C58.6077 12.3767 60.2935 15.4404 59.4335 16.2992C58.5735 17.158 55.4934 15.4867 54.3551 14.3558C53.2168 13.2248 52.9912 11.6119 53.8512 10.7531C54.7112 9.89426 56.3311 10.1149 57.4694 11.2458Z" fill="#009F79"/>
    <path d="M62.1458 13.3218C61.3823 14.123 60.2779 16.2673 60.8872 16.8433C61.4965 17.4193 63.5887 16.209 64.3522 15.4077C65.1157 14.6065 65.2407 13.49 64.6314 12.914C64.0221 12.338 62.9093 12.5205 62.1458 13.3218Z" fill="#009F79"/>
    <path d="M16.4509 11.5047C19.0331 11.5047 21.3978 12.0269 23.5448 13.0714C25.7208 14.0869 26.8089 15.262 26.8089 16.5966C26.8089 17.1769 26.6058 17.6701 26.1996 18.0763C25.8224 18.4825 25.3582 18.6856 24.8069 18.6856C24.2556 18.6856 23.7044 18.468 23.1531 18.0328C22.6018 17.5976 22.0651 17.1189 21.5428 16.5966C21.0496 16.0454 20.2517 15.5521 19.1492 15.1169C18.0757 14.6817 16.7991 14.4641 15.3194 14.4641C12.0118 14.4641 9.40051 15.5086 7.48559 17.5976C5.59969 19.6576 4.65674 22.472 4.65674 26.0407C4.65674 29.5804 5.70124 32.6413 7.79024 35.2236C9.87924 37.8058 12.5195 39.0969 15.711 39.0969C18.9316 39.0969 21.862 37.5592 24.5023 34.4837C25.0825 33.7874 25.5032 33.4392 25.7644 33.4392C26.0545 33.4392 26.2721 33.5408 26.4172 33.7439C26.5913 33.9179 26.6783 34.1936 26.6783 34.5708C26.6783 34.9479 26.3737 35.5572 25.7644 36.3986C25.1841 37.211 24.3862 38.0524 23.3707 38.9228C22.3842 39.7643 21.0786 40.5041 19.4538 41.1424C17.8581 41.7517 16.1898 42.0564 14.4489 42.0564C10.6191 42.0564 7.42756 40.6927 4.87434 37.9654C2.35013 35.2381 1.08802 31.7274 1.08802 27.4333C1.08802 23.1103 2.53872 19.382 5.44011 16.2485C8.37052 13.0859 12.0408 11.5047 16.4509 11.5047ZM45.9254 35.5717C46.0995 36.4131 46.4767 37.1675 47.057 37.8348C47.6663 38.4731 47.9709 39.1259 47.9709 39.7933C47.9709 40.4606 47.7388 41.0119 47.2746 41.4471C46.8103 41.8533 46.3026 42.0564 45.7513 42.0564C45.2001 42.0564 44.7504 41.9548 44.4022 41.7517C44.054 41.5486 43.7639 41.244 43.5318 40.8378C43.2126 40.2285 42.966 39.4886 42.7919 38.6182L40.877 29.5223C40.5869 28.1877 40.1226 27.1287 39.4843 26.3453C38.875 25.5619 37.9176 25.1702 36.6119 25.1702C35.3353 25.1702 34.3344 25.62 33.609 26.5194C32.9127 27.3898 32.55 28.3473 32.521 29.3918C32.7531 36.2681 32.8691 39.9093 32.8691 40.3155C32.8691 40.6927 32.6951 41.0844 32.3469 41.4906C31.9987 41.8678 31.549 42.0564 30.9978 42.0564C30.4465 42.0564 29.9678 41.8678 29.5616 41.4906C29.1844 41.0844 28.9958 40.4316 28.9958 39.5321C28.9958 38.6327 29.0683 36.5002 29.2134 33.1346C29.3585 29.7399 29.431 27.1142 29.431 25.2573C29.431 23.4004 29.3585 20.9052 29.2134 17.7717C29.0683 14.6382 28.9958 12.6217 28.9958 11.7223C28.9958 10.8229 29.1844 10.17 29.5616 9.76385C29.9678 9.35766 30.4465 9.15456 30.9978 9.15456C31.549 9.15456 31.9987 9.35766 32.3469 9.76385C32.6951 10.141 32.8691 10.7793 32.8691 11.6788C32.8691 12.5492 32.7966 14.6092 32.6515 17.8587C32.5355 21.0793 32.4775 23.7196 32.4775 25.7795C34.1893 23.2263 36.1622 21.9497 38.3963 21.9497C41.4428 21.9497 43.4012 23.9952 44.2716 28.0861L45.9254 35.5717ZM53.2043 27.3028C51.9277 28.5794 51.2894 30.1461 51.2894 32.003C51.2894 33.8599 51.9277 35.4412 53.2043 36.7468C54.5099 38.0234 56.0767 38.6617 57.9045 38.6617C59.7614 38.6617 61.3137 38.0234 62.5613 36.7468C63.8089 35.4412 64.4327 33.8599 64.4327 32.003C64.4327 30.1461 63.8089 28.5794 62.5613 27.3028C61.3137 26.0262 59.7614 25.3879 57.9045 25.3879C56.0767 25.3879 54.5099 26.0262 53.2043 27.3028ZM54.9451 42.0564C53.0882 42.0564 51.536 41.331 50.2884 39.8803C49.0408 38.4296 48.417 36.6162 48.417 34.4402C48.417 32.2351 49.0988 30.1171 50.4625 28.0861C51.8261 26.0262 53.4219 24.4884 55.2498 23.4729C57.0776 22.4574 58.92 21.9497 60.7769 21.9497C62.6338 21.9497 64.1861 22.6751 65.4337 24.1257C66.6813 25.5764 67.3051 27.4043 67.3051 29.6094C67.3051 31.7854 66.6232 33.9034 65.2596 35.9634C63.8959 37.9944 62.3001 39.5176 60.4723 40.5331C58.6444 41.5486 56.802 42.0564 54.9451 42.0564ZM74.9375 42.0564C74.4153 42.0564 73.951 41.8387 73.5449 41.4035C73.1677 40.9393 72.8775 40.3881 72.6744 39.7497C70.8756 33.8889 69.2943 29.5078 67.9307 26.6064C67.3794 25.3588 67.1038 24.4449 67.1038 23.8646C67.1038 23.2843 67.2633 22.8201 67.5825 22.472C67.9016 22.1238 68.3078 21.9497 68.8011 21.9497C69.5554 21.9497 70.1647 22.5155 70.629 23.647C71.1222 24.7786 72.0071 27.0997 73.2837 30.6104C74.5894 34.092 75.3727 36.2536 75.6339 37.095C75.895 37.9074 76.0691 38.4296 76.1561 38.6617L76.2867 39.0969C77.0991 38.5457 78.013 37.3996 79.0285 35.6588C80.073 33.9179 80.7838 32.1916 81.161 30.4798C80.6097 29.0001 80.073 27.68 79.5507 26.5194C79.0285 25.3298 78.7674 24.4449 78.7674 23.8646C78.7674 23.2843 78.9269 22.8201 79.2461 22.472C79.5652 22.1238 79.9714 21.9497 80.4647 21.9497C81.219 21.9497 81.8283 22.5155 82.2926 23.647C82.7858 24.7786 83.6707 27.0997 84.9473 30.6104C86.253 34.092 87.0363 36.2536 87.2975 37.095C87.5586 37.9074 87.7327 38.4296 87.8197 38.6617L87.9503 39.0969C88.9948 38.4006 90.1118 36.8919 91.3014 34.5708C92.52 32.2206 93.1293 30.1026 93.1293 28.2167C93.1293 27.5784 92.9552 26.824 92.607 25.9536C92.2588 25.0542 92.0848 24.3579 92.0848 23.8646C92.0848 23.3714 92.2733 22.9362 92.6505 22.559C93.0567 22.1528 93.5935 21.9497 94.2608 21.9497C94.9281 21.9497 95.4649 22.2689 95.8711 22.9072C96.3063 23.5455 96.5239 24.619 96.5239 26.1277C96.5239 27.6364 96.0161 29.6819 95.0007 32.2642C94.0142 34.8464 92.7231 37.124 91.1273 39.0969C89.5315 41.0699 88.0228 42.0564 86.6011 42.0564C85.6146 42.0564 84.8603 41.2875 84.338 39.7497C84.222 39.4306 83.9609 38.6327 83.5547 37.3561L82.4666 34.1791C81.3931 36.4131 80.1745 38.2845 78.8109 39.7933C77.4472 41.302 76.1561 42.0564 74.9375 42.0564Z" fill="#D87023"/>
    <path d="M16.625 65.3804C16.8281 65.9026 17.2488 66.6135 17.8871 67.5129C18.5544 68.3833 18.8881 69.0941 18.8881 69.6454C18.8881 70.1967 18.743 70.6464 18.4529 70.9946C18.1627 71.3137 17.771 71.4733 17.2778 71.4733C16.0882 71.4733 15.0292 70.2402 14.1008 67.774L13.7526 66.8165C12.2729 69.921 10.0533 71.4733 7.0939 71.4733C5.61419 71.4733 4.3811 71.0091 3.39463 70.0806C2.43717 69.1232 1.95844 67.9336 1.95844 66.5119C1.95844 64.3068 2.7128 62.4064 4.22153 60.8107C5.73025 59.2149 7.7032 58.359 10.1404 58.2429C9.56009 57.2274 8.90728 56.4731 8.18193 55.9798C7.48559 55.4576 6.84729 55.153 6.26701 55.0659C5.68673 54.9789 5.13546 54.9353 4.61321 54.9353C4.11998 54.9063 3.72829 54.7903 3.43815 54.5872C3.14801 54.3841 3.00294 53.9924 3.00294 53.4121C3.00294 52.8028 3.23505 52.3096 3.69928 51.9324C4.19251 51.5552 4.77279 51.3666 5.44011 51.3666C7.32602 51.3666 9.18291 52.3096 11.0108 54.1955C12.8387 56.0814 14.4344 59.0408 15.7981 63.0738L16.625 65.3804ZM9.05234 60.5495C8.00784 60.5495 7.06489 60.8977 6.22349 61.594C5.4111 62.2904 5.0049 63.1898 5.0049 64.2923C5.0049 65.3949 5.36758 66.3233 6.09292 67.0777C6.84729 67.803 7.74672 68.1657 8.79122 68.1657C9.83572 68.1657 10.7352 67.803 11.4895 67.0777C12.2439 66.3233 12.6211 65.4384 12.6211 64.4229C12.6211 63.6976 12.4905 63.0302 12.2294 62.4209C11.9682 61.7826 11.8087 61.3909 11.7506 61.2459C10.9963 60.7817 10.0968 60.5495 9.05234 60.5495ZM20.4106 78.7413C20.7008 77.6097 20.9764 75.9414 21.2375 73.7364C21.5277 71.5313 21.6727 69.0071 21.6727 66.1637C21.6727 63.3204 21.5422 59.418 21.281 54.4566H19.9319C18.8003 54.4566 18.2346 53.9634 18.2346 52.9769C18.2346 51.9904 18.8003 51.4972 19.9319 51.4972C20.5122 51.4972 20.9474 51.5117 21.2375 51.5407C21.3536 47.914 22.7172 44.853 25.3285 42.3578C27.9687 39.8336 30.609 38.5715 33.2493 38.5715C34.2938 38.5715 35.1497 38.7601 35.817 39.1373C36.5133 39.5144 36.8615 40.0657 36.8615 40.7911C36.8615 41.4874 36.6584 42.0387 36.2522 42.4449C35.875 42.822 35.4979 43.0106 35.1207 43.0106C34.7435 43.0106 34.0907 42.851 33.1622 42.5319C32.2338 42.1837 31.3199 42.0096 30.4204 42.0096C28.6216 42.0096 27.0838 42.8075 25.8072 44.4033C24.5306 45.97 23.8923 47.8559 23.8923 50.061V51.7148H25.285L31.2908 51.3666C32.4224 51.3666 32.9882 51.9034 32.9882 52.9769C32.9882 54.0504 32.4224 54.5872 31.2908 54.5872L25.285 54.239C24.6466 54.239 24.1824 54.2535 23.8923 54.2825C23.9503 57.4741 24.0809 61.0573 24.284 65.0322C24.5161 69.0071 24.6321 72.924 24.6321 76.7828C24.6321 81.4831 23.7182 83.8332 21.8903 83.8332C20.6137 83.8332 19.9754 83.0063 19.9754 81.3525C19.9754 80.7722 20.1205 79.9018 20.4106 78.7413ZM37.8798 60.9847L38.228 68.862C38.228 69.6454 38.0249 70.2837 37.6187 70.7769C37.2415 71.2412 36.7773 71.4733 36.226 71.4733C35.6748 71.4733 35.2251 71.2557 34.8769 70.8205C34.5287 70.3562 34.3546 69.7324 34.3546 68.9491C34.3546 68.1657 34.4272 67.0487 34.5722 65.598C34.8624 62.6966 35.0075 60.2449 35.0075 58.2429C35.0075 57.3725 34.7318 56.5456 34.1806 55.7622C33.6583 54.9499 33.3972 54.2245 33.3972 53.5862C33.3972 52.9479 33.6148 52.4256 34.05 52.0194C34.4852 51.5842 34.9784 51.3666 35.5297 51.3666C36.9804 51.3666 37.7057 52.5127 37.7057 54.8048V56.5021C38.5762 54.9353 39.6207 53.6877 40.8393 52.7593C42.0578 51.8309 43.1749 51.3666 44.1904 51.3666C45.2058 51.3666 45.9747 51.6278 46.497 52.15C47.0482 52.6432 47.3239 53.3106 47.3239 54.152C47.3239 54.9934 47.1208 55.7042 46.7146 56.2845C46.3084 56.8358 45.8732 57.1114 45.4089 57.1114C44.9447 57.1114 44.582 56.9953 44.3209 56.7632C44.0888 56.5021 43.9147 56.241 43.7987 55.9798C43.6826 55.6897 43.465 55.4286 43.1459 55.1965C42.8267 54.9353 42.4205 54.8048 41.9273 54.8048C41.0859 54.8048 40.2445 55.356 39.4031 56.4586C38.5617 57.5611 38.0539 59.0698 37.8798 60.9847ZM49.3105 68.0351C49.3105 64.3794 49.238 61.1733 49.0929 58.417C48.9479 55.6607 48.8753 54.0359 48.8753 53.5427C48.8753 53.0494 49.0639 52.5707 49.4411 52.1065C49.8473 51.6133 50.326 51.3666 50.8773 51.3666C51.4285 51.3666 51.8783 51.5987 52.2264 52.063C52.5746 52.4982 52.7487 53.151 52.7487 54.0214C52.7487 54.8628 52.6471 56.299 52.444 58.33C52.2409 60.3319 52.1394 62.4209 52.1394 64.597C52.1394 65.4674 52.3135 66.3088 52.6616 67.1212C53.0388 67.9046 53.2274 68.6299 53.2274 69.2972C53.2274 69.9355 53.0388 70.4578 52.6616 70.864C52.3135 71.2702 51.8202 71.4733 51.1819 71.4733C50.5726 71.4733 50.1084 71.1251 49.7893 70.4288C49.4701 69.7324 49.3105 68.9346 49.3105 68.0351ZM50.7032 46.4488C50.0649 46.4488 49.5571 46.2747 49.18 45.9265C48.8028 45.5784 48.6142 45.0706 48.6142 44.4033C48.6142 43.736 48.8463 43.1702 49.3105 42.706C49.7747 42.2127 50.326 41.9661 50.9643 41.9661C51.6026 41.9661 52.1104 42.1547 52.4875 42.5319C52.8937 42.8801 53.0968 43.3878 53.0968 44.0551C53.0968 44.7224 52.8502 45.2882 52.357 45.7524C51.8928 46.2167 51.3415 46.4488 50.7032 46.4488ZM64.7696 54.7613C62.8547 54.7613 61.2879 55.4286 60.0694 56.7632C58.8798 58.0689 58.285 59.6356 58.285 61.4635C58.285 63.2914 58.9088 64.8436 60.1564 66.1202C61.433 67.3968 62.9853 68.0351 64.8131 68.0351C66.4379 68.0351 67.9031 67.4403 69.2088 66.2508C69.673 65.8446 70.0211 65.6415 70.2533 65.6415C70.4854 65.6415 70.6885 65.7285 70.8625 65.9026C71.0366 66.0767 71.1237 66.2653 71.1237 66.4684C71.1237 67.3098 70.2968 68.3543 68.643 69.6019C67.0182 70.8495 65.1613 71.4733 63.0723 71.4733C61.0123 71.4733 59.2135 70.6319 57.6757 68.9491C56.167 67.2663 55.4126 65.1773 55.4126 62.6821C55.4126 59.4905 56.6167 56.8067 59.0249 54.6307C61.433 52.4547 64.0878 51.3666 66.9892 51.3666C68.2078 51.3666 69.1942 51.5842 69.9486 52.0194C70.732 52.4256 71.1237 52.9624 71.1237 53.6297C71.1237 54.268 70.9206 54.7903 70.5144 55.1965C70.1372 55.6027 69.76 55.8058 69.3828 55.8058C69.0057 55.8058 68.3528 55.6317 67.4244 55.2835C66.525 54.9353 65.64 54.7613 64.7696 54.7613ZM86.0289 65.3804C86.232 65.9026 86.6527 66.6135 87.291 67.5129C87.9583 68.3833 88.292 69.0941 88.292 69.6454C88.292 70.1967 88.1469 70.6464 87.8568 70.9946C87.5666 71.3137 87.1749 71.4733 86.6817 71.4733C85.4921 71.4733 84.4331 70.2402 83.5047 67.774L83.1565 66.8165C81.6768 69.921 79.4572 71.4733 76.4978 71.4733C75.0181 71.4733 73.785 71.0091 72.7985 70.0806C71.8411 69.1232 71.3624 67.9336 71.3624 66.5119C71.3624 64.3068 72.1167 62.4064 73.6254 60.8107C75.1342 59.2149 77.1071 58.359 79.5443 58.2429C78.964 57.2274 78.3112 56.4731 77.5858 55.9798C76.8895 55.4576 76.2512 55.153 75.6709 55.0659C75.0906 54.9789 74.5394 54.9353 74.0171 54.9353C73.5239 54.9063 73.1322 54.7903 72.8421 54.5872C72.5519 54.3841 72.4069 53.9924 72.4069 53.4121C72.4069 52.8028 72.639 52.3096 73.1032 51.9324C73.5964 51.5552 74.1767 51.3666 74.844 51.3666C76.7299 51.3666 78.5868 52.3096 80.4147 54.1955C82.2426 56.0814 83.8383 59.0408 85.202 63.0738L86.0289 65.3804ZM78.4563 60.5495C77.4118 60.5495 76.4688 60.8977 75.6274 61.594C74.815 62.2904 74.4088 63.1898 74.4088 64.2923C74.4088 65.3949 74.7715 66.3233 75.4968 67.0777C76.2512 67.803 77.1506 68.1657 78.1951 68.1657C79.2396 68.1657 80.1391 67.803 80.8934 67.0777C81.6478 66.3233 82.025 65.4384 82.025 64.4229C82.025 63.6976 81.8944 63.0302 81.6333 62.4209C81.3722 61.7826 81.2126 61.3909 81.1546 61.2459C80.4002 60.7817 79.5008 60.5495 78.4563 60.5495Z" fill="#D87023"/>
    </svg>
    