<svg width="49" height="42" viewBox="0 0 49 42" fill="none" xmlns="http://www.w3.org/2000/svg">
    <path
        d="M24.472 7.90998C24.0161 8.05976 23.7626 8.55458 23.9746 8.98509C24.4095 9.86776 25.0503 10.6382 25.8479 11.2286C26.8795 11.9921 28.1227 12.4168 29.406 12.444C30.6892 12.4713 31.9493 12.0997 33.0124 11.3806C33.8344 10.8246 34.5073 10.082 34.9792 9.21854C35.2093 8.79741 34.977 8.29228 34.5279 8.1233C34.0788 7.95435 33.5845 8.18778 33.3317 8.59564C33.0021 9.12768 32.5624 9.58729 32.0386 9.94162C31.2734 10.4592 30.3665 10.7266 29.4428 10.707C28.5192 10.6874 27.6244 10.3818 26.8819 9.83223C26.3736 9.45601 25.9538 8.97818 25.647 8.43265C25.4118 8.01442 24.9279 7.76023 24.472 7.90998Z"
        fill="#D87023" />
    <path
        d="M28.7411 5.64451C29.3104 6.2122 30.1534 7.75006 29.7233 8.18115C29.2932 8.61223 27.7529 7.77331 27.1836 7.20562C26.6143 6.63794 26.5015 5.82827 26.9316 5.39718C27.3617 4.96609 28.1718 5.07683 28.7411 5.64451Z"
        fill="#009F79" />
    <path
        d="M31.0796 6.68701C30.6977 7.08921 30.1454 8.16556 30.4501 8.45471C30.7549 8.74385 31.8012 8.1363 32.183 7.7341C32.5649 7.3319 32.6274 6.77146 32.3227 6.48232C32.0179 6.19317 31.4614 6.28482 31.0796 6.68701Z"
        fill="#009F79" />
    <path
        d="M8.24253 5.23343C9.53633 5.23343 10.7211 5.4951 11.7969 6.01843C12.8871 6.52723 13.4323 7.11598 13.4323 7.78469C13.4323 8.07543 13.3305 8.32256 13.127 8.52608C12.938 8.7296 12.7054 8.83136 12.4292 8.83136C12.153 8.83136 11.8768 8.72233 11.6006 8.50428C11.3244 8.28622 11.0555 8.04636 10.7938 7.78469C10.5467 7.50848 10.1469 7.26135 9.59448 7.0433C9.05661 6.82524 8.41698 6.71621 7.67559 6.71621C6.01836 6.71621 4.71002 7.23955 3.75057 8.28622C2.80566 9.31835 2.3332 10.7285 2.3332 12.5165C2.3332 14.29 2.85654 15.8237 3.90321 17.1175C4.94988 18.4113 6.27276 19.0582 7.87184 19.0582C9.48545 19.0582 10.9537 18.2877 12.2766 16.7468C12.5673 16.3979 12.7781 16.2235 12.9089 16.2235C13.0543 16.2235 13.1633 16.2744 13.236 16.3761C13.3232 16.4633 13.3669 16.6014 13.3669 16.7904C13.3669 16.9794 13.2142 17.2847 12.9089 17.7063C12.6182 18.1133 12.2184 18.5349 11.7096 18.971C11.2154 19.3926 10.5612 19.7633 9.74712 20.0831C8.94758 20.3884 8.1117 20.541 7.23947 20.541C5.32058 20.541 3.7215 19.8577 2.44223 18.4913C1.1775 17.1248 0.545141 15.3658 0.545141 13.2143C0.545141 11.0483 1.272 9.18025 2.72571 7.61024C4.19395 6.0257 6.03289 5.23343 8.24253 5.23343ZM23.0104 17.2919C23.0976 17.7135 23.2866 18.0915 23.5773 18.4258C23.8826 18.7457 24.0353 19.0727 24.0353 19.4071C24.0353 19.7414 23.919 20.0177 23.6864 20.2357C23.4538 20.4392 23.1994 20.541 22.9232 20.541C22.647 20.541 22.4217 20.4901 22.2472 20.3884C22.0728 20.2866 21.9274 20.134 21.8111 19.9304C21.6512 19.6252 21.5276 19.2545 21.4404 18.8183L20.4809 14.261C20.3356 13.5923 20.103 13.0617 19.7832 12.6692C19.4779 12.2767 18.9982 12.0804 18.344 12.0804C17.7044 12.0804 17.2028 12.3057 16.8394 12.7564C16.4905 13.1925 16.3088 13.6722 16.2943 14.1955C16.4106 17.6408 16.4687 19.4652 16.4687 19.6688C16.4687 19.8577 16.3815 20.054 16.207 20.2575C16.0326 20.4465 15.8073 20.541 15.5311 20.541C15.2549 20.541 15.015 20.4465 14.8115 20.2575C14.6225 20.054 14.528 19.7269 14.528 19.2763C14.528 18.8256 14.5644 17.7571 14.637 16.0708C14.7097 14.37 14.7461 13.0544 14.7461 12.124C14.7461 11.1936 14.7097 9.94345 14.637 8.37344C14.5644 6.80344 14.528 5.79311 14.528 5.34246C14.528 4.89181 14.6225 4.56472 14.8115 4.3612C15.015 4.15768 15.2549 4.05592 15.5311 4.05592C15.8073 4.05592 16.0326 4.15768 16.207 4.3612C16.3815 4.55019 16.4687 4.87 16.4687 5.32065C16.4687 5.75676 16.4324 6.7889 16.3597 8.41705C16.3015 10.0307 16.2725 11.3535 16.2725 12.3857C17.1301 11.1064 18.1187 10.4668 19.238 10.4668C20.7644 10.4668 21.7457 11.4916 22.1818 13.5414L23.0104 17.2919ZM26.6574 13.1489C26.0178 13.7885 25.6979 14.5735 25.6979 15.5039C25.6979 16.4343 26.0178 17.2265 26.6574 17.8807C27.3116 18.5203 28.0966 18.8401 29.0124 18.8401C29.9428 18.8401 30.7205 18.5203 31.3456 17.8807C31.9707 17.2265 32.2833 16.4343 32.2833 15.5039C32.2833 14.5735 31.9707 13.7885 31.3456 13.1489C30.7205 12.5092 29.9428 12.1894 29.0124 12.1894C28.0966 12.1894 27.3116 12.5092 26.6574 13.1489ZM27.5296 20.541C26.5992 20.541 25.8215 20.1776 25.1964 19.4507C24.5713 18.7239 24.2588 17.8153 24.2588 16.725C24.2588 15.6202 24.6004 14.559 25.2836 13.5414C25.9669 12.5092 26.7664 11.7388 27.6823 11.23C28.5981 10.7212 29.5212 10.4668 30.4516 10.4668C31.382 10.4668 32.1597 10.8302 32.7848 11.5571C33.4099 12.2839 33.7224 13.1998 33.7224 14.3046C33.7224 15.3949 33.3808 16.4561 32.6976 17.4882C32.0143 18.5058 31.2148 19.269 30.2989 19.7778C29.3831 20.2866 28.46 20.541 27.5296 20.541ZM37.5466 20.541C37.2849 20.541 37.0523 20.432 36.8488 20.2139C36.6598 19.9813 36.5145 19.7051 36.4127 19.3853C35.5114 16.4488 34.7191 14.2537 34.0359 12.8C33.7597 12.1749 33.6216 11.717 33.6216 11.4262C33.6216 11.1355 33.7015 10.9029 33.8614 10.7285C34.0213 10.554 34.2249 10.4668 34.472 10.4668C34.85 10.4668 35.1552 10.7503 35.3878 11.3172C35.635 11.8842 36.0783 13.0471 36.718 14.8061C37.3721 16.5506 37.7646 17.6336 37.8955 18.0551C38.0263 18.4622 38.1135 18.7239 38.1571 18.8401L38.2226 19.0582C38.6296 18.782 39.0875 18.2078 39.5963 17.3356C40.1197 16.4633 40.4758 15.5984 40.6648 14.7407C40.3886 13.9993 40.1197 13.3379 39.858 12.7564C39.5963 12.1604 39.4655 11.717 39.4655 11.4262C39.4655 11.1355 39.5454 10.9029 39.7053 10.7285C39.8653 10.554 40.0688 10.4668 40.3159 10.4668C40.6939 10.4668 40.9991 10.7503 41.2317 11.3172C41.4789 11.8842 41.9223 13.0471 42.5619 14.8061C43.2161 16.5506 43.6086 17.6336 43.7394 18.0551C43.8702 18.4622 43.9574 18.7239 44.0011 18.8401L44.0665 19.0582C44.5898 18.7093 45.1495 17.9534 45.7455 16.7904C46.3561 15.6129 46.6613 14.5517 46.6613 13.6068C46.6613 13.287 46.5741 12.909 46.3997 12.4729C46.2252 12.0223 46.138 11.6734 46.138 11.4262C46.138 11.1791 46.2325 10.961 46.4215 10.7721C46.625 10.5685 46.8939 10.4668 47.2283 10.4668C47.5626 10.4668 47.8316 10.6267 48.0351 10.9465C48.2532 11.2663 48.3622 11.8042 48.3622 12.5601C48.3622 13.3161 48.1078 14.3409 47.599 15.6347C47.1047 16.9285 46.4578 18.0697 45.6583 19.0582C44.8587 20.0467 44.1028 20.541 43.3905 20.541C42.8962 20.541 42.5183 20.1558 42.2566 19.3853C42.1985 19.2254 42.0676 18.8256 41.8641 18.186L41.319 16.5942C40.7811 17.7135 40.1705 18.6512 39.4873 19.4071C38.804 20.163 38.1571 20.541 37.5466 20.541Z"
        fill="#D87023" />
    <path
        d="M8.32976 32.2548C8.43152 32.5165 8.6423 32.8726 8.96212 33.3233C9.29647 33.7594 9.46365 34.1155 9.46365 34.3918C9.46365 34.668 9.39096 34.8933 9.24559 35.0677C9.10022 35.2276 8.90397 35.3076 8.65684 35.3076C8.06082 35.3076 7.53021 34.6898 7.06503 33.4541L6.89058 32.9744C6.14919 34.5299 5.0371 35.3076 3.55432 35.3076C2.81293 35.3076 2.1951 35.075 1.70084 34.6098C1.22112 34.1301 0.981254 33.5341 0.981254 32.8217C0.981254 31.7169 1.35922 30.7647 2.11515 29.9652C2.87108 29.1657 3.8596 28.7368 5.08071 28.6787C4.78997 28.1699 4.46289 27.7919 4.09946 27.5448C3.75057 27.2831 3.43075 27.1305 3.14001 27.0869C2.84927 27.0433 2.57307 27.0214 2.3114 27.0214C2.06427 27.0069 1.86802 26.9488 1.72265 26.847C1.57727 26.7452 1.50459 26.549 1.50459 26.2583C1.50459 25.953 1.62089 25.7058 1.85348 25.5169C2.10061 25.3279 2.39135 25.2334 2.72571 25.2334C3.67062 25.2334 4.60099 25.7058 5.51683 26.6508C6.43266 27.5957 7.2322 29.0784 7.91545 31.0991L8.32976 32.2548ZM4.53557 29.8344C4.01224 29.8344 3.53978 30.0088 3.11821 30.3577C2.71117 30.7066 2.50765 31.1573 2.50765 31.7097C2.50765 32.2621 2.68936 32.7273 3.05279 33.1052C3.43075 33.4686 3.8814 33.6504 4.40474 33.6504C4.92808 33.6504 5.37872 33.4686 5.75669 33.1052C6.13465 32.7273 6.32364 32.2839 6.32364 31.7751C6.32364 31.4117 6.25822 31.0773 6.12739 30.772C5.99655 30.4522 5.9166 30.256 5.88752 30.1833C5.50956 29.9507 5.05891 29.8344 4.53557 29.8344ZM10.2265 38.9491C10.3719 38.3822 10.51 37.5463 10.6408 36.4415C10.7862 35.3367 10.8589 34.0719 10.8589 32.6473C10.8589 31.2227 10.7935 29.2674 10.6626 26.7816H9.98664C9.4197 26.7816 9.13622 26.5345 9.13622 26.0402C9.13622 25.5459 9.4197 25.2988 9.98664 25.2988C10.2774 25.2988 10.4954 25.3061 10.6408 25.3206C10.699 23.5035 11.3822 21.9698 12.6905 20.7196C14.0134 19.4549 15.3363 18.8225 16.6592 18.8225C17.1825 18.8225 17.6113 18.917 17.9457 19.106C18.2946 19.295 18.469 19.5712 18.469 19.9346C18.469 20.2835 18.3673 20.5597 18.1638 20.7632C17.9748 20.9522 17.7858 21.0467 17.5968 21.0467C17.4078 21.0467 17.0807 20.9667 16.6156 20.8068C16.1504 20.6324 15.6925 20.5452 15.2418 20.5452C14.3405 20.5452 13.57 20.9449 12.9304 21.7445C12.2908 22.5295 11.971 23.4744 11.971 24.5792V25.4078H12.6687L15.6779 25.2334C16.2449 25.2334 16.5283 25.5023 16.5283 26.0402C16.5283 26.5781 16.2449 26.847 15.6779 26.847L12.6687 26.6726C12.3489 26.6726 12.1163 26.6798 11.971 26.6944C12 28.2934 12.0654 30.0888 12.1672 32.0804C12.2835 34.0719 12.3417 36.0344 12.3417 37.9679C12.3417 40.3229 11.8837 41.5004 10.9679 41.5004C10.3283 41.5004 10.0084 41.0861 10.0084 40.2575C10.0084 39.9667 10.0811 39.5306 10.2265 38.9491ZM18.9793 30.0524L19.1537 33.9993C19.1537 34.3918 19.0519 34.7116 18.8484 34.9587C18.6594 35.1913 18.4268 35.3076 18.1506 35.3076C17.8744 35.3076 17.6491 35.1986 17.4747 34.9805C17.3002 34.7479 17.213 34.4354 17.213 34.0429C17.213 33.6504 17.2493 33.0907 17.322 32.3638C17.4674 30.9101 17.5401 29.6817 17.5401 28.6787C17.5401 28.2426 17.402 27.8283 17.1258 27.4358C16.8641 27.0287 16.7333 26.6653 16.7333 26.3455C16.7333 26.0257 16.8423 25.764 17.0604 25.5605C17.2784 25.3424 17.5255 25.2334 17.8018 25.2334C18.5286 25.2334 18.892 25.8076 18.892 26.956V27.8065C19.3281 27.0214 19.8515 26.3964 20.462 25.9312C21.0726 25.466 21.6323 25.2334 22.1411 25.2334C22.6499 25.2334 23.0351 25.3642 23.2968 25.6259C23.573 25.873 23.7111 26.2074 23.7111 26.6289C23.7111 27.0505 23.6093 27.4067 23.4058 27.6974C23.2023 27.9736 22.9842 28.1117 22.7516 28.1117C22.519 28.1117 22.3373 28.0536 22.2065 27.9373C22.0902 27.8065 22.003 27.6756 21.9448 27.5448C21.8867 27.3994 21.7776 27.2686 21.6177 27.1523C21.4578 27.0214 21.2543 26.956 21.0072 26.956C20.5856 26.956 20.164 27.2322 19.7425 27.7846C19.3209 28.3371 19.0665 29.093 18.9793 30.0524ZM24.7065 33.5849C24.7065 31.7533 24.6701 30.1469 24.5974 28.7659C24.5248 27.3849 24.4884 26.5708 24.4884 26.3237C24.4884 26.0765 24.5829 25.8367 24.7719 25.6041C24.9754 25.357 25.2153 25.2334 25.4915 25.2334C25.7677 25.2334 25.993 25.3497 26.1675 25.5823C26.3419 25.8003 26.4291 26.1274 26.4291 26.5635C26.4291 26.9851 26.3782 27.7047 26.2765 28.7223C26.1747 29.7253 26.1238 30.772 26.1238 31.8623C26.1238 32.2984 26.2111 32.72 26.3855 33.127C26.5745 33.5195 26.669 33.883 26.669 34.2173C26.669 34.5371 26.5745 34.7988 26.3855 35.0023C26.2111 35.2058 25.9639 35.3076 25.6441 35.3076C25.3388 35.3076 25.1062 35.1331 24.9463 34.7843C24.7864 34.4354 24.7065 34.0356 24.7065 33.5849ZM25.4043 22.7693C25.0844 22.7693 24.83 22.6821 24.6411 22.5077C24.4521 22.3332 24.3576 22.0788 24.3576 21.7445C24.3576 21.4101 24.4739 21.1267 24.7065 20.8941C24.9391 20.6469 25.2153 20.5234 25.5351 20.5234C25.8549 20.5234 26.1093 20.6179 26.2983 20.8068C26.5018 20.9813 26.6036 21.2357 26.6036 21.57C26.6036 21.9044 26.48 22.1879 26.2329 22.4205C26.0003 22.6531 25.7241 22.7693 25.4043 22.7693ZM32.4521 26.9342C31.4926 26.9342 30.7076 27.2686 30.0971 27.9373C29.501 28.5915 29.203 29.3765 29.203 30.2923C29.203 31.2081 29.5156 31.9859 30.1407 32.6255C30.7803 33.2651 31.558 33.5849 32.4739 33.5849C33.288 33.5849 34.0221 33.2869 34.6763 32.6909C34.9088 32.4874 35.0833 32.3856 35.1996 32.3856C35.3159 32.3856 35.4176 32.4292 35.5049 32.5165C35.5921 32.6037 35.6357 32.6982 35.6357 32.7999C35.6357 33.2215 35.2214 33.7449 34.3928 34.3699C33.5787 34.995 32.6483 35.3076 31.6017 35.3076C30.5695 35.3076 29.6682 34.886 28.8978 34.0429C28.1418 33.1997 27.7639 32.153 27.7639 30.9029C27.7639 29.3038 28.3672 27.9591 29.5737 26.8688C30.7803 25.7785 32.1105 25.2334 33.5642 25.2334C34.1747 25.2334 34.669 25.3424 35.0469 25.5605C35.4394 25.764 35.6357 26.0329 35.6357 26.3673C35.6357 26.6871 35.5339 26.9488 35.3304 27.1523C35.1414 27.3558 34.9525 27.4576 34.7635 27.4576C34.5745 27.4576 34.2474 27.3703 33.7822 27.1959C33.3316 27.0214 32.8882 26.9342 32.4521 26.9342ZM43.1038 32.2548C43.2056 32.5165 43.4163 32.8726 43.7362 33.3233C44.0705 33.7594 44.2377 34.1155 44.2377 34.3918C44.2377 34.668 44.165 34.8933 44.0196 35.0677C43.8743 35.2276 43.678 35.3076 43.4309 35.3076C42.8349 35.3076 42.3043 34.6898 41.8391 33.4541L41.6646 32.9744C40.9232 34.5299 39.8111 35.3076 38.3284 35.3076C37.587 35.3076 36.9691 35.075 36.4749 34.6098C35.9952 34.1301 35.7553 33.5341 35.7553 32.8217C35.7553 31.7169 36.1333 30.7647 36.8892 29.9652C37.6451 29.1657 38.6336 28.7368 39.8548 28.6787C39.564 28.1699 39.2369 27.7919 38.8735 27.5448C38.5246 27.2831 38.2048 27.1305 37.914 27.0869C37.6233 27.0433 37.3471 27.0214 37.0854 27.0214C36.8383 27.0069 36.6421 26.9488 36.4967 26.847C36.3513 26.7452 36.2786 26.549 36.2786 26.2583C36.2786 25.953 36.3949 25.7058 36.6275 25.5169C36.8746 25.3279 37.1654 25.2334 37.4997 25.2334C38.4447 25.2334 39.375 25.7058 40.2909 26.6508C41.2067 27.5957 42.0062 29.0784 42.6895 31.0991L43.1038 32.2548ZM39.3096 29.8344C38.7863 29.8344 38.3138 30.0088 37.8922 30.3577C37.4852 30.7066 37.2817 31.1573 37.2817 31.7097C37.2817 32.2621 37.4634 32.7273 37.8268 33.1052C38.2048 33.4686 38.6554 33.6504 39.1788 33.6504C39.7021 33.6504 40.1528 33.4686 40.5307 33.1052C40.9087 32.7273 41.0977 32.2839 41.0977 31.7751C41.0977 31.4117 41.0323 31.0773 40.9014 30.772C40.7706 30.4522 40.6906 30.256 40.6616 30.1833C40.2836 29.9507 39.8329 29.8344 39.3096 29.8344Z"
        fill="#D87023" />
</svg>